<svg width="24" height="20" xmlns="http://www.w3.org/2000/svg"><g fill="#ffff13" fill-rule="nonzero"><path d="M9.8 18.1V18l-.1-.1-.1-.1H4.4c-.6 0-1.3-.3-1.7-.7-.5-.5-.7-1.2-.7-1.8V4.4c0-.6.3-1.3.7-1.7.5-.5 1-.7 1.7-.7h5l.2-.1.2-.3v-.4-.4-.3c0-.1 0-.3-.2-.3L9.3 0H4.4C3.2 0 2.1.4 1.3 1.3.4 2 0 3.3 0 4.4v10.8c0 1.2.4 2.3 1.3 3.1.8.8 2 1.3 3.1 1.3h5l.2-.1.2-.3v-.4-.4-.3z"/><path d="M23.7 9.1L15.4.8a1 1 0 00-1.4 0 1 1 0 00-.3.7v4.4H6.9a1 1 0 00-1 1v5.8c0 .6.4 1 1 1h6.8v4.5c0 .2.1.5.3.7.4.3 1 .3 1.4 0l8.3-8.4c.4-.4.4-1 0-1.3z"/></g></svg>